HIERARCHY
ROOT Hips
{
	OFFSET 0.00000 0.00000 0.00000
	CHANNELS 6 Xposition Yposition Zposition Zrotation Yrotation Xrotation 
	JOINT RightUpLegDummy
	{
		OFFSET 0 0 0
		CHANNELS 3 Zrotation Yrotation Xrotation
		JOINT RightUpLeg
		{
			OFFSET -3.52197 -3.41223 0.04002
			CHANNELS 3 Zrotation Yrotation Xrotation
			JOINT RightLeg
			{
				OFFSET 0.00006 -17.42390 1.60435
				CHANNELS 3 Zrotation Yrotation Xrotation
				JOINT RightFoot
				{
					OFFSET 0.06153 -16.50078 -1.63901
					CHANNELS 3 Zrotation Yrotation Xrotation
					JOINT RightToes
					{
						OFFSET 0.00298 -1.73825 3.34613
						CHANNELS 3 Zrotation Yrotation Xrotation
						End Site
						{
							OFFSET 0.00480 -0.05416 3.85043
						}
					}
				}
			}
		}
	}
	JOINT SpineDummy
	{
		OFFSET 0 0 0
		CHANNELS 3 Zrotation Yrotation Xrotation
		JOINT Spine
		{
			OFFSET 0.00000 4.68130 0.00000
			CHANNELS 3 Zrotation Yrotation Xrotation
			JOINT Spine1
			{
				OFFSET -0.00000 10.10138 0.05002
				CHANNELS 3 Zrotation Yrotation Xrotation
				JOINT HEadDummy
				{
					OFFSET 0 0 0
					CHANNELS 3 Zrotation Yrotation Xrotation
					JOINT Head
					{
						OFFSET -0.00000 3.43865 0.00438
						CHANNELS 3 Zrotation Yrotation Xrotation
						End Site
						{
							OFFSET -0.11417 5.02924 0.98962
						}
					}
				}
				JOINT LeftShoulder1Dummy
				{
					OFFSET 0 0 0
					CHANNELS 3 Zrotation Yrotation Xrotation
					JOINT LeftShoulder1
					{
						OFFSET 3.53937 -0.14262 -0.08662
						CHANNELS 3 Zrotation Yrotation Xrotation
						JOINT LeftArm
						{
							OFFSET 4.04833 -0.00133 0.12681
							CHANNELS 3 Zrotation Yrotation Xrotation
							JOINT LeftForeArm
							{
								OFFSET 10.33880 -0.01036 -0.55515
								CHANNELS 3 Zrotation Yrotation Xrotation
								JOINT LeftHand
								{
									OFFSET 8.69677 0.07543 0.40060
									CHANNELS 3 Zrotation Yrotation Xrotation
									End Site
									{
										OFFSET 5.28377 -0.21905 0.59205
									}
								}
							}
						}
					}
				}
				JOINT RightShoulderDummy
				{
					OFFSET 0 0 0
					CHANNELS 3 Zrotation Yrotation Xrotation
					JOINT RightShoulder
					{
						OFFSET -3.53937 -0.14262 -0.08660
						CHANNELS 3 Zrotation Yrotation Xrotation
						JOINT RightArm
						{
							OFFSET -4.04833 -0.00133 0.12683
							CHANNELS 3 Zrotation Yrotation Xrotation
							JOINT RightForeArm
							{
								OFFSET -10.37987 -0.01039 -0.55511
								CHANNELS 3 Zrotation Yrotation Xrotation
								JOINT RightHand
								{
									OFFSET -8.67398 0.07538 0.40058
									CHANNELS 3 Zrotation Yrotation Xrotation
									End Site
									{
										OFFSET -5.24810 -0.21916 0.59204
									}
								}
							}
						}
					}
				}
			}
		}
	}
	JOINT LeftUpLegDummy
	{
		OFFSET 0 0 0
		CHANNELS 3 Zrotation Yrotation Xrotation
		JOINT LeftUpLeg
		{
			OFFSET 3.52197 -3.41223 0.04002
			CHANNELS 3 Zrotation Yrotation Xrotation
			JOINT LeftLeg
			{
				OFFSET -0.00012 -17.42399 1.60337
				CHANNELS 3 Zrotation Yrotation Xrotation
				JOINT LeftFoot
				{
					OFFSET -0.09972 -16.50070 -1.63802
					CHANNELS 3 Zrotation Yrotation Xrotation
					JOINT LeftToes
					{
						OFFSET -0.01575 -1.73823 3.34611
						CHANNELS 3 Zrotation Yrotation Xrotation
						End Site
						{
							OFFSET 0.03150 -0.01868 3.85031
						}
					}
				}
			}
		}
	}
}
MOTION
Frames: 11
Frame Time: 0.033333
10.8458 38.8690 -1.3997 2.2257 60.4099 -2.3518 0.0000 0.0000 0.0000 -11.2750 -10.3078 4.8577 -17.5517 -16.1015 42.7227 1.9827 -0.3474 11.7096 0.0000 -0.0000 0.0000 0.0000 0.0000 0.0000 0.8832 0.7744 11.4085 0.2630 0.7843 -2.8713 -0.0000 0.0000 -0.0000 -5.8834 11.3578 -0.5027 -0.0000 0.0000 -0.0000 -34.5433 -2.4630 2.4215 -42.3999 -13.2474 -18.5578 -10.5277 5.1932 45.7443 16.4656 -3.9869 -1.3019 -0.0000 0.0000 -0.0000 35.2121 5.2587 3.6135 38.3345 -0.1392 -17.9468 10.4278 3.9176 19.7797 -10.4594 2.0175 -0.6505 0.0000 0.0000 0.0000 -3.7677 0.2165 -12.0163 6.9095 21.5285 17.9722 5.5515 -0.4149 -2.5137 0.0000 0.0000 -0.0000
11.5453 38.7931 -1.2588 1.4919 63.4532 -3.2259 0.0000 0.0000 0.0000 -8.9525 -7.2988 1.0111 -13.0630 -10.0694 46.6213 4.0639 -0.6305 6.8857 0.0000 -0.0000 0.0000 0.0000 0.0000 0.0000 0.5867 0.4647 11.9352 0.9501 0.3535 -2.9614 -0.0000 0.0000 -0.0000 -5.7872 10.5846 -0.8228 -0.0000 0.0000 -0.0000 -34.5811 -2.5208 2.4472 -41.6614 -14.8724 -16.9709 -11.4485 5.2488 43.2203 15.5739 -4.5393 -1.2998 -0.0000 0.0000 -0.0000 35.1185 5.2423 3.5985 38.9160 0.7577 -17.6521 10.4030 4.4676 20.4812 -10.6001 2.0560 -0.6628 0.0000 0.0000 0.0000 -4.2487 -0.1816 -11.5999 6.9077 19.0972 19.6514 5.5697 -0.3047 -4.5307 0.0000 0.0000 -0.0000
12.2434 38.7416 -1.0807 0.0711 66.3441 -4.5962 0.0000 0.0000 0.0000 -6.5422 -4.4921 -2.8576 -13.4810 -9.2263 49.9157 4.6557 -0.6410 4.7095 0.0000 -0.0000 0.0000 0.0000 0.0000 0.0000 0.4947 0.1685 12.2554 1.5951 -0.0502 -3.0406 -0.0000 0.0000 -0.0000 -5.4347 9.8554 -0.8818 -0.0000 0.0000 -0.0000 -34.2650 -2.5279 2.4308 -41.4593 -16.9231 -15.7954 -11.8996 5.2807 41.7151 15.6470 -4.5708 -1.3098 -0.0000 0.0000 -0.0000 34.9236 5.2231 3.5733 39.6744 1.2874 -16.8742 10.4015 6.0092 19.8354 -10.6652 2.1927 -0.6785 0.0000 0.0000 0.0000 -4.3484 -0.3959 -11.1989 6.6957 16.5889 21.1187 5.6927 -0.2100 -6.3431 0.0000 0.0000 -0.0000
12.9651 38.7652 -0.8826 -1.7703 69.2824 -6.5480 0.0000 0.0000 0.0000 -4.5415 -2.1344 -6.1009 -17.6003 -11.4998 51.7901 3.7231 -0.4913 4.1210 0.0000 -0.0000 0.0000 0.0000 0.0000 0.0000 0.2963 -0.1470 12.6180 2.4023 -0.5081 -3.0397 -0.0000 0.0000 -0.0000 -4.9610 9.2804 -0.8026 -0.0000 0.0000 -0.0000 -33.8943 -2.5229 2.4061 -41.4901 -19.2659 -15.0200 -12.0409 5.3004 40.8275 16.4461 -4.2751 -1.3399 -0.0000 0.0000 -0.0000 34.8644 5.2242 3.5676 40.1458 1.5905 -14.4227 10.2906 8.3713 17.2246 -10.5891 2.3609 -0.6876 0.0000 0.0000 0.0000 -4.2773 -0.4330 -10.0736 5.8586 13.9266 21.5394 6.2697 -0.1467 -7.8045 0.0000 0.0000 -0.0000
13.7052 38.8499 -0.6808 -3.9538 72.5282 -9.0859 0.0000 0.0000 0.0000 -3.0645 -0.0550 -8.5754 -21.5032 -14.3881 51.7793 2.8283 -0.3323 2.4372 0.0000 -0.0000 0.0000 0.0000 0.0000 0.0000 -0.1238 -0.5991 13.1276 3.4043 -1.1606 -2.9716 -0.0000 0.0000 -0.0000 -4.6054 8.8326 -0.7884 -0.0000 0.0000 -0.0000 -33.8502 -2.5762 2.4247 -41.3134 -21.5518 -14.4858 -12.1045 5.3137 40.2298 16.7427 -4.3314 -1.3725 -0.0000 0.0000 -0.0000 34.8865 5.2278 3.5682 40.3452 1.9072 -10.2796 9.7578 11.0418 13.3356 -10.5436 2.4707 -0.6936 0.0000 0.0000 0.0000 -4.0896 -0.2619 -8.2193 4.4214 11.0283 21.0631 6.9872 -0.0931 -8.9377 0.0000 0.0000 -0.0000
14.4697 38.9277 -0.4897 -6.8847 75.6940 -12.4167 0.0000 0.0000 0.0000 -2.0181 1.9563 -10.5568 -22.8089 -16.7441 49.6140 2.8009 -0.2776 0.0083 0.0000 -0.0000 0.0000 0.0000 0.0000 0.0000 -0.3458 -1.0965 13.6165 4.1349 -1.8206 -2.8678 -0.0000 0.0000 -0.0000 -4.3711 8.4055 -0.8280 -0.0000 0.0000 -0.0000 -33.9796 -2.6588 2.4656 -41.0968 -23.5468 -14.1269 -12.1292 5.3256 39.7072 16.4157 -4.7189 -1.3971 -0.0000 0.0000 -0.0000 34.8804 5.2216 3.5690 40.5108 2.2582 -6.1831 8.8145 13.3515 9.7611 -10.5284 2.5642 -0.7004 0.0000 0.0000 0.0000 -3.6854 0.1614 -6.2761 2.7774 8.0241 20.6238 7.6918 -0.0322 -9.9683 0.0000 0.0000 -0.0000
15.2709 38.9588 -0.3155 -10.5734 78.1628 -16.4563 0.0000 0.0000 0.0000 -1.2829 3.8448 -12.1847 -21.6437 -18.4621 45.4262 3.1311 -0.2790 -1.3527 0.0000 -0.0000 0.0000 0.0000 0.0000 0.0000 -0.1259 -1.4074 13.9300 4.2895 -2.1734 -2.6818 -0.0000 0.0000 -0.0000 -4.1187 7.8831 -0.8191 -0.0000 0.0000 -0.0000 -33.9203 -2.6933 2.4756 -41.3044 -25.1828 -13.7814 -12.1259 5.3410 39.0389 16.4220 -4.7378 -1.3999 -0.0000 0.0000 -0.0000 34.8653 5.2140 3.5643 40.6383 2.5774 -3.6411 7.9042 14.8601 7.4824 -10.4154 2.6824 -0.7023 0.0000 0.0000 0.0000 -3.1640 0.7104 -4.5379 1.3612 5.3490 20.6624 8.4469 0.0521 -11.1371 0.0000 0.0000 -0.0000
16.1096 38.9775 -0.1575 -14.1813 79.8847 -20.4313 0.0000 0.0000 0.0000 -0.8189 5.3755 -13.3531 -18.5442 -19.2945 39.4032 3.4723 -0.3068 -1.4245 0.0000 -0.0000 0.0000 0.0000 0.0000 0.0000 0.2220 -1.4588 14.1012 4.1735 -2.2034 -2.3971 -0.0000 0.0000 -0.0000 -3.8688 7.3114 -0.7398 -0.0000 0.0000 -0.0000 -33.7719 -2.6643 2.4548 -41.8830 -26.3251 -13.1431 -12.2451 5.3554 38.3264 17.0424 -4.2582 -1.3879 -0.0000 0.0000 -0.0000 34.8257 5.2040 3.5568 40.5769 2.8735 -2.5125 7.4397 15.5344 6.2672 -10.3755 2.7213 -0.7027 0.0000 0.0000 0.0000 -2.8093 1.1112 -2.6575 0.4495 3.4009 20.5839 9.0489 0.1516 -12.3229 0.0000 0.0000 -0.0000
16.9784 39.0179 -0.0167 -17.2079 81.1936 -23.7688 0.0000 0.0000 0.0000 -0.6051 6.3638 -14.0623 -14.0430 -18.7635 31.7592 4.0141 -0.3685 -0.9618 0.0000 -0.0000 0.0000 0.0000 0.0000 0.0000 0.4490 -1.3865 14.1012 4.1013 -2.1172 -2.0917 -0.0000 0.0000 -0.0000 -3.7279 6.9048 -0.5975 -0.0000 0.0000 -0.0000 -33.8537 -2.6123 2.4392 -42.3854 -26.7765 -12.1463 -12.5795 5.3574 38.0356 17.4812 -3.9918 -1.3869 -0.0000 0.0000 -0.0000 34.7309 5.1884 3.5420 40.3055 3.1444 -2.1453 7.5346 15.5027 5.7912 -10.6785 2.6044 -0.7141 0.0000 0.0000 0.0000 -2.6898 1.3034 -0.5383 -0.0161 2.0906 19.9634 9.3472 0.2363 -13.2560 0.0000 0.0000 -0.0000
17.8755 39.0618 0.1084 -19.7005 82.1886 -26.3443 0.0000 0.0000 0.0000 -0.4423 6.5037 -14.4203 -9.3851 -17.1208 23.1653 4.8592 -0.4735 -0.2453 0.0000 -0.0000 0.0000 0.0000 0.0000 0.0000 0.7156 -1.3006 13.7779 3.9109 -1.9888 -1.8089 -0.0000 0.0000 -0.0000 -3.6179 6.7559 -0.3683 -0.0000 0.0000 -0.0000 -34.0545 -2.5751 2.4367 -42.7210 -26.5385 -11.1561 -12.9749 5.3435 38.4153 17.2578 -4.3512 -1.4192 -0.0000 0.0000 -0.0000 34.7180 5.1873 3.5404 39.8923 3.3179 -2.8371 8.0889 14.7980 6.6205 -11.1022 2.4734 -0.7320 0.0000 0.0000 0.0000 -2.6021 1.5323 1.4765 -0.4051 1.0136 19.1259 9.6709 0.3038 -13.9382 0.0000 0.0000 -0.0000
18.7927 39.0964 0.2311 -21.0397 82.8376 -27.6224 0.0000 0.0000 0.0000 0.1649 4.9903 -14.3439 -5.7234 -14.9964 14.4901 6.0838 -0.6421 0.7337 0.0000 -0.0000 0.0000 0.0000 0.0000 0.0000 1.0343 -1.1714 13.2363 3.5043 -1.7716 -1.5129 -0.0000 0.0000 -0.0000 -3.4053 6.6942 -0.0859 -0.0000 0.0000 -0.0000 -34.0583 -2.5694 2.4347 -43.1229 -25.8652 -10.6591 -13.1871 5.3205 39.3000 16.7414 -4.8954 -1.4503 -0.0000 0.0000 -0.0000 34.8991 5.2127 3.5669 39.3779 3.3583 -5.0922 8.8961 13.4312 9.1775 -11.1732 2.4820 -0.7375 0.0000 0.0000 0.0000 -2.4434 1.9921 3.4468 -0.9314 -0.0735 18.1319 10.1567 0.3665 -14.4824 0.0000 0.0000 -0.0000
